<?xml version="1.0" standalone="no"?>
<!DOCTYPE svg PUBLIC "-//W3C//DTD SVG 20010904//EN"
 "http://www.w3.org/TR/2001/REC-SVG-20010904/DTD/svg10.dtd">
<svg version="1.0" xmlns="http://www.w3.org/2000/svg"
 width="4500.000000pt" height="4500.000000pt" viewBox="0 0 4500.000000 4500.000000"
 preserveAspectRatio="xMidYMid meet">
<metadata>
Created by potrace 1.16, written by Peter Selinger 2001-2019
</metadata>
<g transform="translate(0.000000,4500.000000) scale(0.100000,-0.100000)"
fill="#916618" stroke="none">
<path d="M21800 44144 c-286 -10 -697 -33 -1035 -59 -254 -20 -686 -60 -745
-70 -19 -3 -89 -12 -155 -20 -388 -46 -823 -111 -1200 -180 -49 -9 -124 -22
-165 -29 -129 -24 -261 -49 -415 -83 -38 -8 -101 -21 -140 -29 -147 -32 -212
-46 -270 -59 -334 -77 -499 -117 -515 -123 -8 -3 -37 -11 -65 -18 -100 -25
-171 -43 -225 -58 -100 -28 -174 -48 -222 -59 -25 -7 -50 -15 -54 -20 -4 -4
-15 -7 -25 -7 -10 0 -38 -6 -61 -14 -24 -8 -77 -24 -118 -36 -172 -49 -580
-176 -770 -240 -152 -51 -350 -119 -375 -130 -11 -4 -67 -25 -125 -45 -58 -21
-119 -44 -137 -51 -17 -8 -38 -14 -46 -14 -9 0 -18 -4 -22 -9 -3 -5 -19 -12
-36 -16 -17 -4 -42 -13 -57 -21 -15 -8 -34 -14 -43 -14 -8 0 -19 -4 -25 -8 -5
-5 -43 -21 -84 -37 -122 -45 -413 -161 -465 -185 -48 -22 -114 -50 -119 -50
-2 0 -35 -14 -73 -31 -90 -40 -100 -44 -158 -69 -27 -12 -59 -25 -70 -30 -109
-48 -160 -71 -280 -125 -38 -17 -182 -84 -305 -142 -200 -94 -715 -355 -905
-458 -33 -18 -110 -60 -171 -93 -61 -33 -120 -65 -130 -70 -10 -6 -58 -33
-105 -61 -48 -28 -89 -51 -92 -51 -4 0 -351 -203 -427 -249 -364 -224 -413
-254 -510 -316 -126 -81 -635 -419 -640 -424 -3 -4 -32 -24 -65 -46 -33 -22
-65 -44 -72 -50 -6 -5 -50 -37 -98 -70 -47 -33 -126 -89 -174 -125 -49 -36
-99 -72 -111 -80 -47 -33 -276 -205 -288 -217 -7 -7 -16 -13 -20 -13 -4 0 -23
-14 -42 -30 -43 -37 -29 -26 -190 -150 -74 -57 -137 -107 -140 -110 -3 -3 -36
-30 -75 -60 -38 -30 -72 -57 -75 -60 -3 -3 -27 -23 -55 -45 -27 -21 -52 -42
-55 -45 -3 -3 -40 -35 -84 -70 -102 -84 -293 -246 -375 -318 -36 -32 -83 -73
-105 -92 -22 -19 -47 -42 -56 -50 -9 -8 -29 -25 -44 -38 -14 -12 -75 -67 -134
-121 -59 -54 -129 -118 -156 -142 -116 -104 -322 -304 -616 -599 -377 -376
-505 -510 -765 -799 -22 -25 -53 -59 -70 -77 -16 -17 -41 -44 -54 -60 -13 -16
-54 -63 -91 -104 -37 -41 -78 -88 -91 -104 -13 -16 -28 -34 -34 -40 -18 -20
-121 -140 -142 -166 -208 -248 -385 -466 -503 -620 -46 -60 -60 -77 -91 -114
-33 -40 -332 -441 -426 -571 -173 -241 -326 -463 -490 -710 -51 -77 -96 -145
-101 -150 -4 -6 -27 -42 -51 -80 -23 -39 -64 -104 -91 -145 -27 -41 -55 -86
-63 -100 -14 -25 -154 -252 -196 -320 -32 -49 -216 -363 -250 -424 -15 -28
-60 -107 -98 -176 -39 -69 -87 -156 -107 -193 -63 -118 -102 -190 -136 -252
-44 -80 -356 -705 -413 -825 -25 -52 -65 -138 -90 -190 -24 -52 -62 -135 -82
-185 -21 -49 -42 -94 -46 -100 -5 -8 -138 -316 -255 -595 -8 -19 -19 -43 -24
-52 -6 -10 -10 -23 -10 -28 0 -11 -33 -91 -50 -122 -6 -10 -10 -23 -10 -29 0
-6 -7 -25 -14 -42 -8 -18 -31 -75 -51 -127 -20 -52 -41 -104 -46 -115 -5 -11
-13 -33 -18 -50 -5 -16 -19 -55 -31 -85 -11 -30 -34 -91 -50 -135 -15 -44 -42
-118 -59 -165 -18 -47 -77 -222 -133 -390 -55 -168 -104 -314 -109 -325 -4
-11 -17 -54 -29 -95 -12 -41 -28 -93 -35 -115 -7 -22 -21 -67 -30 -100 -10
-33 -22 -72 -27 -87 -5 -14 -13 -41 -18 -60 -4 -18 -19 -71 -33 -118 -13 -47
-27 -94 -30 -105 -2 -11 -15 -56 -27 -100 -61 -222 -72 -265 -125 -475 -49
-198 -73 -297 -86 -360 -6 -30 -15 -64 -19 -75 -5 -11 -13 -45 -19 -75 -6 -30
-17 -84 -25 -120 -39 -174 -87 -409 -119 -585 -33 -179 -38 -203 -52 -280 -8
-44 -21 -123 -30 -175 -9 -52 -20 -120 -25 -150 -27 -161 -88 -596 -116 -825
-40 -334 -67 -610 -84 -845 -6 -80 -15 -188 -21 -240 -6 -52 -15 -189 -20
-305 -6 -115 -14 -291 -19 -390 -5 -99 -8 -488 -8 -865 0 -377 3 -766 8 -865
5 -99 13 -274 19 -390 5 -115 14 -253 20 -305 6 -52 15 -162 21 -245 34 -462
124 -1212 200 -1665 5 -30 16 -98 25 -150 9 -52 22 -131 30 -175 14 -77 19
-101 52 -280 33 -181 77 -395 120 -585 8 -36 19 -90 24 -120 6 -30 14 -64 19
-75 4 -11 13 -45 19 -75 11 -54 25 -113 55 -235 71 -286 88 -353 126 -490 12
-44 28 -102 36 -130 7 -27 16 -61 20 -75 4 -14 18 -63 31 -110 14 -47 29 -100
33 -118 5 -19 13 -46 18 -60 5 -15 17 -54 27 -87 9 -33 23 -78 30 -100 7 -22
23 -74 35 -115 12 -41 25 -84 29 -95 5 -11 54 -157 109 -325 56 -168 115 -343
133 -390 17 -47 44 -121 59 -165 16 -44 39 -105 50 -135 12 -30 26 -68 31 -85
5 -16 13 -39 18 -50 5 -11 26 -63 46 -115 20 -52 43 -109 51 -127 7 -17 14
-36 14 -42 0 -6 4 -19 10 -29 17 -31 50 -111 50 -122 0 -5 4 -18 10 -28 5 -9
16 -33 24 -52 117 -279 250 -587 255 -595 4 -5 25 -50 46 -100 20 -49 58 -133
82 -185 25 -52 65 -138 90 -190 57 -120 369 -745 413 -825 34 -62 73 -134 136
-252 20 -37 68 -124 106 -193 39 -69 82 -145 96 -170 13 -25 66 -115 117 -200
51 -85 104 -174 117 -197 12 -23 61 -103 108 -179 47 -76 94 -152 105 -170 11
-18 39 -63 63 -101 24 -37 62 -98 86 -136 23 -37 47 -75 54 -85 7 -9 54 -80
105 -157 170 -256 320 -473 490 -710 94 -130 393 -531 426 -571 31 -37 45 -54
91 -114 83 -108 266 -336 369 -460 153 -183 148 -177 206 -245 29 -33 63 -73
76 -89 13 -16 29 -34 34 -40 71 -79 157 -177 176 -200 13 -16 38 -43 54 -60
17 -18 48 -52 70 -77 259 -287 392 -426 770 -804 290 -291 495 -490 611 -594
27 -24 97 -88 156 -142 59 -54 120 -109 134 -121 15 -13 35 -30 44 -38 9 -8
34 -31 56 -50 22 -19 69 -60 105 -92 82 -72 273 -234 375 -318 44 -35 81 -67
84 -70 3 -3 28 -24 55 -45 28 -22 52 -42 55 -45 3 -3 37 -30 75 -60 39 -30 72
-57 75 -60 3 -3 66 -53 140 -110 161 -124 147 -113 190 -150 19 -16 38 -30 42
-30 4 0 13 -6 20 -13 13 -13 246 -189 288 -217 12 -8 62 -44 111 -80 48 -36
127 -92 174 -125 48 -33 92 -64 98 -70 7 -5 39 -28 72 -50 33 -22 62 -42 65
-46 5 -6 478 -319 620 -411 126 -81 158 -101 530 -329 76 -46 423 -249 427
-249 3 0 44 -23 92 -51 47 -28 95 -55 105 -61 10 -5 69 -37 130 -70 61 -33
138 -75 171 -93 190 -103 705 -364 905 -458 123 -58 267 -125 305 -142 120
-54 171 -77 280 -125 11 -5 43 -18 70 -30 58 -25 68 -29 158 -69 38 -17 71
-31 73 -31 5 0 71 -28 119 -50 52 -24 343 -140 465 -185 41 -16 79 -32 85 -37
5 -4 16 -8 25 -8 8 0 27 -6 42 -14 15 -8 40 -17 57 -21 17 -4 33 -11 36 -16 4
-5 13 -9 22 -9 8 0 29 -6 46 -14 18 -7 79 -30 137 -51 58 -20 114 -41 125 -45
25 -11 223 -79 375 -130 190 -64 598 -191 770 -240 41 -12 94 -28 118 -36 23
-8 51 -14 61 -14 10 0 21 -3 25 -7 4 -5 29 -13 54 -20 45 -11 87 -22 220 -58
56 -16 129 -35 227 -59 28 -7 57 -15 65 -18 16 -6 181 -46 515 -123 33 -7 94
-21 135 -30 41 -9 94 -20 118 -26 53 -12 178 -37 412 -84 47 -9 119 -23 160
-30 41 -8 116 -21 165 -30 377 -69 812 -134 1200 -180 66 -8 136 -17 155 -20
19 -3 82 -10 140 -16 531 -50 736 -66 1325 -101 301 -18 1729 -18 2025 0 586
35 927 59 937 65 5 3 64 8 133 12 69 4 128 9 132 11 4 3 74 11 155 20 291 29
656 76 918 118 50 8 135 22 190 30 169 27 403 68 525 91 47 9 117 23 155 30
256 49 456 91 667 141 84 20 180 42 213 49 57 13 120 28 245 60 30 7 75 18
100 24 25 6 61 15 80 20 65 18 236 65 312 86 29 8 87 23 128 35 41 12 100 28
130 36 30 9 66 19 80 24 14 5 59 18 100 30 41 12 86 25 100 30 14 5 79 25 145
45 138 43 680 221 710 234 11 5 49 19 85 31 36 12 74 26 85 30 11 4 79 29 150
55 113 41 180 66 345 130 90 34 561 225 605 245 11 5 43 18 70 30 28 12 59 25
70 30 11 5 40 18 65 29 132 57 241 105 285 126 28 13 91 42 140 65 50 22 135
62 190 88 118 55 822 408 880 441 22 13 83 46 135 73 52 28 135 73 185 101 49
27 115 64 145 80 30 17 72 41 92 54 21 13 64 37 95 54 99 53 689 411 848 513
228 148 425 278 600 398 39 26 77 52 85 58 275 187 1183 866 1230 920 3 3 37
30 75 60 39 30 72 57 75 60 3 3 21 18 40 34 44 36 111 91 165 136 22 19 65 55
95 80 29 25 58 50 64 55 6 6 40 35 76 65 36 30 67 57 70 60 3 3 41 37 84 75
44 39 87 77 96 85 9 8 50 45 91 81 260 234 522 483 829 789 254 255 345 349
620 645 41 44 79 85 85 91 5 6 42 46 80 90 39 43 93 103 120 134 28 30 77 87
110 125 33 39 62 72 65 75 3 3 55 64 115 135 60 72 114 135 120 141 9 11 21
25 110 134 20 25 44 54 53 65 167 201 303 375 535 684 227 303 265 356 499
691 114 164 399 594 452 680 15 25 52 83 82 130 86 135 334 547 334 557 0 5
-29 31 -65 57 -36 26 -71 53 -78 60 -7 7 -109 86 -227 176 -118 90 -217 166
-220 170 -3 3 -90 71 -194 149 -146 112 -190 141 -197 130 -6 -8 -18 -30 -27
-49 -24 -48 -269 -452 -405 -668 -60 -97 -454 -690 -513 -773 -115 -163 -204
-286 -417 -574 -61 -82 -113 -152 -117 -155 -3 -3 -28 -34 -55 -70 -77 -103
-269 -342 -395 -495 -64 -77 -129 -156 -145 -176 -28 -33 -120 -141 -184 -214
-163 -187 -228 -262 -241 -275 -8 -9 -58 -63 -110 -120 -253 -277 -357 -385
-651 -679 -274 -275 -417 -413 -639 -616 -41 -38 -97 -89 -125 -115 -64 -58
-274 -243 -334 -293 -25 -22 -73 -63 -106 -92 -33 -29 -87 -74 -120 -101 -33
-27 -76 -63 -95 -80 -34 -30 -326 -265 -556 -445 -60 -47 -172 -133 -250 -190
-130 -96 -185 -136 -409 -298 -228 -165 -791 -539 -1060 -705 -128 -79 -463
-280 -510 -306 -22 -12 -87 -49 -145 -82 -58 -34 -134 -77 -170 -98 -36 -20
-105 -59 -155 -85 -49 -26 -112 -60 -140 -75 -363 -198 -1103 -559 -1405 -685
-36 -15 -94 -40 -130 -57 -36 -16 -74 -33 -85 -38 -11 -5 -60 -25 -110 -45
-49 -20 -99 -40 -110 -45 -56 -25 -121 -52 -230 -94 -66 -26 -129 -51 -140
-56 -22 -11 -415 -158 -455 -170 -14 -5 -70 -25 -125 -45 -55 -20 -138 -49
-185 -65 -47 -15 -130 -44 -185 -63 -55 -19 -174 -58 -265 -87 -91 -28 -176
-55 -190 -60 -14 -5 -56 -18 -95 -29 -38 -11 -115 -33 -170 -49 -458 -136
-1023 -277 -1540 -388 -66 -14 -155 -32 -197 -40 -43 -7 -115 -21 -160 -30
-146 -27 -219 -41 -383 -68 -88 -14 -198 -33 -245 -41 -162 -28 -660 -96 -880
-120 -80 -9 -183 -20 -230 -25 -111 -13 -518 -47 -640 -55 -52 -3 -153 -10
-225 -15 -223 -17 -950 -40 -1255 -40 -308 0 -1053 23 -1255 40 -66 5 -169 12
-230 15 -121 7 -495 39 -645 55 -385 42 -435 48 -830 105 -480 69 -770 120
-1276 224 -83 17 -157 33 -165 35 -8 2 -59 14 -114 26 -157 34 -460 107 -640
155 -55 15 -147 39 -205 55 -160 42 -338 93 -610 175 -27 8 -71 21 -97 29
-219 64 -858 283 -1148 394 -27 11 -99 38 -160 61 -60 22 -119 45 -130 50 -11
5 -40 17 -65 27 -25 9 -63 25 -85 34 -22 9 -60 25 -85 34 -76 31 -162 67 -217
92 -17 8 -33 14 -36 14 -3 0 -35 13 -70 30 -36 16 -68 30 -70 30 -6 0 -57 23
-289 129 -38 17 -98 45 -135 62 -38 17 -108 49 -158 72 -113 53 -786 391 -880
442 -38 21 -94 51 -122 67 -29 15 -79 42 -110 60 -32 17 -76 41 -98 53 -147
80 -746 434 -910 538 -353 224 -760 497 -1065 715 -162 116 -579 428 -660 494
-19 16 -107 86 -195 156 -142 112 -536 439 -590 489 -11 10 -72 63 -135 118
-63 55 -119 105 -125 111 -8 8 -127 115 -211 189 -245 216 -1023 997 -1285
1289 -24 28 -51 57 -59 66 -41 44 -175 196 -238 269 -26 30 -52 59 -57 65 -24
25 -307 362 -397 472 -275 338 -626 800 -873 1154 -37 53 -62 89 -170 245 -67
96 -192 284 -250 375 -99 154 -161 251 -193 302 -19 29 -116 190 -216 358
-166 277 -238 401 -309 530 -13 25 -48 88 -77 140 -154 277 -521 1008 -645
1285 -48 106 -76 169 -102 225 -37 81 -49 108 -77 177 -15 35 -37 86 -49 115
-23 51 -45 105 -122 293 -20 50 -40 99 -45 110 -5 11 -26 63 -45 115 -19 52
-39 104 -45 115 -17 38 -78 200 -96 255 -9 30 -20 60 -24 65 -5 6 -13 26 -18
45 -6 19 -31 94 -57 165 -52 144 -191 563 -249 750 -21 66 -41 131 -46 145 -5
14 -18 59 -30 100 -12 41 -26 89 -31 105 -5 17 -18 64 -30 105 -11 41 -25 89
-30 105 -14 51 -37 134 -74 275 -19 74 -40 151 -45 170 -8 30 -28 111 -95 395
-27 115 -44 191 -75 335 -59 275 -74 350 -105 515 -8 44 -21 116 -29 160 -9
44 -31 177 -50 295 -20 118 -40 242 -46 275 -5 33 -15 96 -21 140 -33 246 -40
301 -54 415 -40 323 -64 562 -90 880 -14 168 -21 284 -46 740 -17 313 -23
1288 -10 1582 7 139 14 312 17 383 18 471 82 1162 158 1725 8 58 19 141 25
185 6 44 16 107 21 140 6 33 26 157 46 275 19 118 41 251 50 295 8 44 21 116
29 160 31 165 46 240 105 515 31 144 48 220 75 335 67 284 87 365 95 395 5 19
26 96 45 170 37 141 60 224 74 275 5 17 19 64 30 105 12 41 25 89 30 105 5 17
19 64 31 105 12 41 25 86 30 100 5 14 25 79 46 145 58 187 197 606 249 750 26
72 51 146 57 165 5 19 13 40 18 45 4 6 15 35 24 65 18 55 79 217 96 255 6 11
26 63 45 115 19 52 40 104 45 115 5 11 25 61 45 110 77 188 99 242 122 293 12
29 34 80 49 115 28 69 40 96 77 177 27 58 60 133 103 228 122 273 491 1006
644 1282 29 52 64 115 77 140 71 129 143 253 309 530 100 168 197 329 216 358
32 51 94 148 193 302 57 89 184 279 246 370 25 36 65 94 90 130 286 413 634
877 957 1274 89 109 372 446 397 472 5 6 31 35 57 65 63 73 197 225 238 269 8
9 35 38 59 66 264 294 1068 1100 1288 1291 28 24 182 163 203 183 8 8 67 60
130 115 63 55 124 108 135 118 54 50 448 377 590 489 88 70 176 140 195 156
81 66 498 378 660 494 228 163 364 256 650 445 388 257 458 300 820 515 372
220 437 257 725 413 39 21 95 52 125 68 80 44 760 385 865 434 50 23 120 55
158 72 37 17 97 45 135 62 232 106 283 129 289 129 2 0 34 14 70 30 35 17 67
30 69 30 3 0 26 9 52 21 84 37 117 50 202 85 25 9 63 25 85 34 22 9 60 25 85
34 25 10 54 22 65 27 11 5 70 28 130 50 61 23 133 50 160 61 290 111 929 330
1148 394 26 8 70 21 97 29 272 82 450 133 610 175 58 16 150 40 205 55 180 48
483 121 640 155 55 12 106 24 114 26 32 10 510 106 696 140 441 79 1175 186
1480 214 50 5 185 18 300 29 116 11 282 25 370 31 88 5 221 15 295 20 175 13
915 40 1104 40 l146 0 0 610 0 610 -307 -2 c-170 -1 -342 -3 -383 -4z"/>
<path d="M22870 42618 c0 -843 4 -1538 8 -1544 4 -7 62 -14 142 -17 406 -20
924 -86 1335 -171 39 -8 95 -20 125 -26 30 -5 71 -15 90 -20 19 -5 109 -28
200 -51 91 -22 188 -47 216 -54 27 -7 66 -17 85 -23 18 -7 81 -26 139 -43 141
-43 310 -97 335 -108 11 -5 67 -26 125 -46 58 -21 119 -43 135 -50 17 -7 53
-21 80 -30 28 -10 55 -21 60 -25 6 -4 33 -15 60 -25 57 -20 81 -30 188 -79 42
-20 80 -36 82 -36 37 0 784 -384 915 -470 8 -6 22 -13 30 -17 51 -23 493 -309
621 -403 43 -30 87 -62 99 -70 104 -70 398 -301 546 -428 17 -15 53 -45 79
-67 27 -22 59 -49 71 -60 12 -11 57 -51 100 -90 167 -147 628 -619 773 -790
24 -27 64 -74 89 -104 26 -30 65 -78 87 -105 21 -28 53 -67 70 -87 51 -59 279
-363 343 -455 7 -11 28 -41 48 -69 52 -72 204 -305 258 -395 29 -49 34 -57 84
-134 17 -28 32 -56 32 -63 0 -7 5 -13 10 -13 6 0 10 -4 10 -10 0 -5 14 -32 30
-60 28 -47 58 -101 130 -235 l28 -50 1681 -3 c1471 -2 1681 0 1681 13 0 13
-29 95 -50 140 -5 11 -32 79 -60 150 -28 72 -57 144 -65 162 -8 17 -15 33 -15
36 0 3 -18 45 -40 92 -22 47 -40 88 -40 90 0 4 -10 27 -77 175 -58 126 -277
565 -346 690 -41 74 -91 167 -112 205 -21 39 -63 110 -92 158 -29 48 -53 90
-53 93 0 3 -19 35 -43 72 -24 37 -61 96 -82 132 -64 108 -420 643 -450 676 -5
6 -17 22 -25 34 -23 35 -332 444 -339 450 -4 3 -31 37 -61 75 -30 39 -57 72
-60 75 -3 3 -52 61 -110 130 -57 69 -119 141 -136 160 -17 19 -69 78 -115 130
-137 155 -210 232 -479 500 -305 305 -440 431 -665 624 -44 38 -91 78 -105 90
-14 12 -72 60 -130 106 -58 47 -107 87 -110 91 -3 3 -66 52 -140 109 -74 58
-139 108 -145 113 -13 11 -298 219 -321 235 -11 7 -41 28 -69 48 -53 38 -271
183 -415 276 -106 68 -528 320 -635 379 -44 24 -102 56 -130 71 -107 59 -666
337 -765 381 -317 139 -339 148 -450 193 -25 9 -63 25 -85 34 -22 10 -116 46
-210 80 -93 34 -184 69 -202 76 -17 8 -36 14 -42 14 -6 0 -19 4 -29 10 -41 23
-608 200 -817 255 -55 15 -125 33 -155 41 -96 26 -157 41 -367 90 -306 70
-703 143 -976 179 -59 8 -110 16 -115 18 -4 3 -47 8 -97 12 -49 4 -93 9 -97
12 -7 4 -221 25 -433 43 -127 10 -390 27 -552 35 l-113 5 0 -1532z"/>
<path d="M22020 42813 c-582 -11 -1519 -79 -2025 -148 -16 -2 -52 -6 -80 -10
-87 -10 -266 -35 -365 -50 -52 -8 -142 -21 -200 -30 -132 -19 -233 -37 -580
-99 -127 -23 -371 -72 -505 -101 -33 -7 -94 -20 -135 -29 -41 -9 -102 -22
-135 -30 -33 -8 -94 -22 -135 -31 -84 -19 -162 -38 -247 -59 -32 -8 -85 -21
-118 -29 -76 -18 -278 -72 -370 -99 -38 -11 -88 -24 -110 -29 -22 -5 -51 -13
-65 -18 -34 -11 -117 -36 -220 -65 -109 -32 -248 -74 -280 -85 -14 -5 -79 -26
-145 -46 -66 -20 -127 -41 -135 -45 -9 -4 -31 -11 -50 -15 -19 -4 -39 -11 -45
-15 -5 -4 -23 -10 -40 -14 -16 -4 -66 -20 -110 -36 -44 -15 -118 -42 -165 -58
-161 -57 -585 -214 -627 -233 -23 -11 -48 -19 -55 -19 -8 0 -18 -4 -24 -8 -5
-5 -31 -17 -59 -27 -47 -17 -115 -44 -160 -65 -11 -5 -81 -34 -155 -64 -74
-30 -178 -73 -230 -96 -108 -47 -171 -75 -215 -95 -59 -26 -241 -109 -350
-160 -27 -13 -201 -98 -385 -189 -384 -190 -544 -272 -770 -399 -19 -11 -63
-35 -97 -53 -34 -19 -85 -47 -113 -64 -28 -16 -53 -30 -56 -30 -5 0 -676 -403
-807 -485 -85 -53 -356 -229 -407 -264 -14 -10 -81 -56 -150 -103 -363 -247
-418 -287 -796 -570 -384 -288 -855 -667 -1098 -883 -6 -5 -47 -41 -91 -80
-449 -392 -973 -896 -1386 -1334 -90 -96 -171 -182 -179 -190 -19 -21 -326
-365 -406 -456 -315 -359 -795 -964 -1114 -1406 -36 -49 -79 -109 -96 -132
-17 -23 -55 -78 -86 -122 -30 -44 -78 -114 -107 -155 -93 -133 -345 -516 -451
-685 -88 -140 -408 -676 -454 -760 -21 -38 -42 -74 -46 -80 -7 -10 -28 -47
-108 -195 -19 -36 -38 -69 -42 -75 -4 -5 -38 -68 -75 -140 -37 -71 -80 -153
-96 -181 -62 -113 -316 -627 -387 -784 -11 -25 -39 -85 -62 -135 -23 -49 -48
-103 -55 -120 -7 -16 -27 -59 -43 -95 -25 -57 -170 -395 -209 -490 -8 -19 -18
-44 -23 -55 -23 -50 -126 -312 -167 -425 -25 -69 -50 -129 -54 -134 -5 -6 -9
-16 -9 -24 0 -8 -6 -28 -14 -45 -7 -18 -30 -79 -51 -137 -20 -58 -41 -114 -46
-125 -4 -11 -18 -49 -29 -85 -12 -36 -25 -74 -30 -85 -22 -51 -201 -604 -250
-775 -12 -41 -25 -86 -30 -100 -18 -53 -84 -287 -141 -500 -32 -121 -134 -527
-158 -630 -12 -52 -26 -111 -31 -131 -6 -20 -14 -58 -20 -85 -5 -27 -18 -92
-30 -144 -27 -127 -86 -419 -100 -500 -7 -36 -18 -99 -25 -140 -40 -215 -47
-258 -90 -535 -301 -1945 -314 -3940 -40 -5915 46 -327 79 -533 130 -810 7
-41 18 -104 25 -140 14 -81 73 -373 100 -500 12 -52 25 -117 30 -144 6 -27 14
-65 20 -85 5 -20 19 -79 31 -131 24 -103 126 -509 158 -630 57 -213 123 -447
141 -500 5 -14 18 -59 30 -100 49 -171 228 -724 250 -775 5 -11 18 -49 30 -85
11 -36 25 -74 29 -85 5 -11 26 -67 46 -125 21 -58 44 -119 51 -137 8 -17 14
-37 14 -45 0 -8 4 -18 9 -24 4 -5 29 -65 54 -134 42 -116 138 -360 173 -440 8
-19 19 -44 24 -55 40 -96 179 -423 202 -475 16 -36 36 -78 43 -95 7 -16 32
-70 55 -120 23 -49 51 -110 62 -135 70 -154 326 -672 386 -782 16 -29 60 -111
97 -183 37 -71 71 -134 75 -140 4 -5 23 -39 42 -75 80 -148 101 -185 108 -195
4 -5 25 -41 46 -80 46 -84 366 -620 454 -760 116 -184 360 -555 465 -705 36
-52 86 -124 111 -160 197 -285 464 -640 743 -990 177 -222 416 -509 571 -685
94 -108 332 -375 370 -415 536 -576 1105 -1128 1605 -1560 61 -52 112 -97 115
-100 12 -14 380 -319 548 -454 173 -139 691 -531 873 -661 91 -65 215 -151
409 -283 69 -47 136 -93 150 -103 51 -35 322 -211 407 -264 131 -82 802 -485
807 -485 3 0 28 -14 56 -30 28 -17 79 -45 113 -64 34 -18 78 -42 97 -53 225
-126 384 -209 765 -397 182 -90 348 -171 370 -181 22 -10 81 -37 130 -60 107
-50 182 -85 250 -115 28 -12 64 -28 80 -35 127 -57 240 -105 355 -151 74 -30
144 -59 155 -64 45 -21 113 -48 160 -65 28 -10 54 -22 60 -27 5 -4 15 -8 23
-8 7 0 32 -8 55 -19 42 -19 469 -178 625 -232 45 -16 119 -42 165 -58 45 -17
96 -33 112 -37 17 -4 35 -10 40 -14 6 -4 26 -11 45 -15 19 -4 41 -11 50 -15 8
-4 69 -25 135 -45 66 -20 131 -41 145 -46 32 -11 171 -53 280 -85 103 -29 186
-54 220 -65 14 -5 43 -13 65 -18 22 -5 73 -19 113 -30 40 -12 143 -39 230 -61
86 -22 173 -45 192 -50 19 -5 103 -26 185 -45 83 -20 168 -40 190 -45 58 -14
198 -45 290 -64 44 -10 98 -21 120 -27 137 -32 783 -150 1015 -184 58 -9 148
-22 200 -30 470 -70 1077 -135 1555 -165 88 -6 223 -15 300 -20 439 -31 1402
-35 1975 -10 618 28 1411 99 1900 170 353 52 534 80 765 121 180 32 709 137
830 165 86 20 185 42 245 54 25 5 61 14 80 19 19 6 134 35 255 65 201 50 275
69 435 113 30 8 69 19 85 23 44 11 213 60 260 75 22 7 67 21 100 30 33 9 78
23 100 30 22 7 94 30 160 50 157 49 676 224 785 265 47 17 101 36 120 42 19 5
39 14 45 19 5 5 16 9 25 9 8 0 27 6 42 14 15 8 40 17 57 21 17 4 33 11 36 16
4 5 14 9 23 9 9 0 28 6 42 13 14 7 54 24 90 37 36 12 69 27 75 32 5 4 15 8 23
8 12 0 44 13 139 56 17 8 36 14 42 14 6 0 19 4 29 10 19 10 43 21 187 80 55
23 118 50 140 59 22 10 83 37 136 59 53 23 135 59 183 82 48 22 89 40 91 40 2
0 45 20 97 44 213 100 366 174 588 285 215 107 317 160 500 259 36 19 99 53
140 75 231 123 824 469 994 580 36 23 98 62 138 87 88 55 745 492 808 539 37
26 210 151 318 229 19 13 268 201 421 317 93 70 611 486 647 520 6 5 35 31 65
56 30 25 88 75 129 110 41 35 91 78 110 95 19 17 80 71 135 120 522 463 1061
997 1535 1518 25 27 50 54 56 60 5 6 32 36 59 66 87 99 170 193 180 204 23 25
240 282 351 416 425 514 869 1110 1234 1660 126 189 342 524 375 582 6 9 76
126 156 260 81 134 156 259 167 278 l19 36 -144 109 c-80 61 -152 117 -161
125 -37 32 -96 69 -104 64 -4 -3 -16 -22 -26 -42 -17 -35 -269 -455 -405 -677
-114 -185 -328 -506 -555 -835 -25 -36 -53 -75 -61 -86 -9 -12 -23 -32 -31
-44 -86 -127 -460 -622 -649 -860 -455 -572 -905 -1074 -1466 -1635 -405 -406
-535 -529 -850 -809 -216 -193 -283 -250 -495 -427 -166 -139 -441 -362 -511
-414 -244 -184 -520 -390 -577 -433 -104 -76 -360 -255 -532 -372 -8 -6 -87
-58 -175 -116 -146 -96 -213 -139 -359 -231 -87 -55 -666 -403 -670 -403 -2 0
-39 -20 -81 -46 -43 -25 -100 -58 -129 -73 -28 -15 -100 -55 -161 -88 -221
-122 -347 -187 -690 -357 -331 -164 -400 -198 -555 -268 -36 -17 -83 -38 -105
-48 -48 -22 -338 -149 -425 -186 -19 -9 -44 -19 -55 -24 -11 -5 -60 -25 -110
-45 -49 -20 -99 -40 -110 -45 -11 -5 -45 -19 -75 -30 -30 -11 -64 -25 -75 -30
-16 -8 -178 -70 -355 -136 -279 -104 -688 -245 -895 -309 -66 -20 -129 -40
-140 -45 -11 -5 -54 -18 -95 -30 -41 -12 -86 -25 -100 -30 -28 -9 -101 -30
-400 -115 -14 -3 -47 -13 -75 -20 -27 -7 -84 -22 -125 -33 -70 -19 -409 -104
-545 -137 -171 -41 -470 -106 -595 -130 -47 -9 -103 -20 -125 -25 -22 -5 -92
-19 -155 -30 -63 -11 -137 -25 -165 -30 -27 -6 -79 -15 -115 -21 -36 -5 -105
-17 -155 -25 -239 -40 -401 -64 -600 -88 -66 -9 -129 -17 -140 -19 -11 -3 -47
-7 -80 -11 -33 -4 -118 -13 -190 -21 -585 -64 -1023 -95 -1610 -115 -797 -27
-1810 5 -2525 80 -52 6 -140 15 -195 20 -116 11 -354 38 -405 46 -39 6 -222
29 -345 44 -44 6 -91 13 -105 16 -14 3 -68 12 -120 20 -126 17 -268 41 -530
89 -262 47 -671 132 -916 190 -378 90 -956 241 -1084 285 -14 5 -59 18 -100
30 -41 12 -86 25 -100 30 -14 5 -59 18 -100 31 -103 30 -514 167 -690 229 -80
29 -156 56 -170 60 -14 5 -63 23 -110 40 -47 17 -105 39 -130 47 -25 9 -49 20
-55 24 -5 5 -16 9 -25 9 -8 0 -28 7 -44 15 -15 8 -33 15 -40 15 -6 0 -22 6
-36 13 -14 7 -47 21 -75 31 -27 10 -63 24 -80 32 -16 7 -70 29 -120 49 -83 34
-130 53 -180 75 -11 5 -65 28 -120 51 -55 23 -123 52 -152 65 -28 13 -54 24
-56 24 -3 0 -48 20 -101 45 -53 25 -99 45 -101 45 -4 0 -77 34 -315 147 -125
59 -688 341 -765 383 -33 18 -94 51 -135 73 -41 22 -101 55 -133 73 -32 19
-60 34 -63 34 -2 0 -21 10 -42 23 -20 13 -64 38 -97 56 -90 49 -451 261 -539
316 -43 27 -272 167 -294 180 -51 30 -672 444 -777 518 -221 156 -292 207
-470 341 -743 556 -1316 1043 -1988 1691 -283 273 -802 814 -1003 1046 -27 31
-103 119 -169 195 -378 435 -830 1006 -1125 1422 -25 34 -59 82 -76 105 -87
118 -445 652 -560 834 -153 243 -304 490 -352 573 -11 19 -62 109 -114 200
-52 91 -112 197 -133 235 -21 39 -62 114 -92 168 -115 207 -369 709 -496 977
-40 84 -112 240 -132 285 -50 111 -77 171 -125 280 -5 11 -18 43 -30 70 -12
28 -25 59 -30 70 -5 11 -27 65 -50 120 -23 55 -45 109 -49 120 -19 43 -79 192
-91 225 -7 19 -21 53 -30 75 -21 49 -179 471 -215 575 -14 41 -37 109 -51 150
-14 41 -38 111 -54 155 -30 85 -128 391 -180 565 -18 58 -38 125 -46 150 -22
69 -80 275 -110 388 -7 28 -20 76 -28 105 -30 112 -78 295 -93 357 -8 36 -22
92 -30 125 -90 369 -225 1033 -273 1345 -5 30 -16 100 -25 155 -125 787 -190
1453 -235 2411 -13 285 -13 1183 0 1468 45 958 110 1624 235 2411 9 55 20 125
25 155 30 191 102 569 167 870 58 272 77 356 138 610 14 55 64 250 91 347 8
29 21 77 28 105 30 113 88 319 110 388 8 25 28 92 46 150 46 154 148 473 180
565 16 44 40 114 54 155 14 41 37 109 51 150 36 104 194 526 215 575 9 22 23
56 30 75 12 33 72 182 91 225 4 11 26 65 49 120 23 55 45 109 50 120 5 11 18
43 30 70 12 28 25 59 30 70 48 109 75 169 125 280 7 17 32 71 55 120 165 356
425 875 573 1142 30 54 71 130 92 168 21 39 81 144 133 235 52 91 104 181 115
200 42 76 194 323 351 573 115 182 473 716 560 834 17 23 51 71 76 105 281
397 723 957 1094 1388 550 638 1282 1380 1871 1895 44 38 82 72 85 75 9 10
284 244 400 341 277 229 496 402 835 655 178 134 249 185 470 341 105 74 726
488 777 518 22 13 251 153 294 180 88 55 449 267 539 316 33 18 77 43 97 56
21 13 40 23 42 23 3 0 31 15 63 34 32 18 92 51 133 73 41 22 102 55 135 73 77
42 640 324 765 383 238 113 311 147 315 147 2 0 48 20 101 45 53 25 98 45 101
45 2 0 28 11 56 24 29 13 97 42 152 65 102 43 154 65 190 81 11 5 61 25 110
45 50 20 104 42 120 49 17 8 53 22 80 32 28 10 61 24 75 31 14 7 30 13 36 13
7 0 25 7 40 15 16 8 36 15 45 15 8 0 19 4 25 8 5 5 56 25 114 46 58 21 121 44
140 52 124 48 745 258 900 303 41 13 86 26 100 31 14 5 59 18 100 30 41 12 86
25 100 30 159 54 925 252 1265 327 208 45 574 119 735 148 279 50 405 72 530
89 52 8 106 17 120 20 14 3 61 10 105 16 159 19 311 39 336 43 15 3 53 8 85
12 33 3 115 12 184 20 678 75 1508 125 2073 125 l157 0 0 255 0 255 -167 -2
c-93 -1 -229 -4 -303 -5z"/>
<path d="M21780 42190 c-295 -11 -637 -29 -735 -40 -49 -5 -133 -12 -185 -15
-294 -18 -979 -99 -1430 -171 -226 -35 -576 -98 -780 -139 -36 -7 -101 -20
-145 -29 -141 -28 -302 -64 -570 -125 -104 -24 -375 -93 -485 -123 -88 -24
-169 -45 -225 -59 -22 -5 -51 -14 -65 -18 -14 -5 -50 -16 -80 -25 -30 -9 -93
-27 -140 -40 -47 -14 -130 -39 -185 -56 -55 -18 -116 -36 -135 -42 -19 -5 -66
-20 -105 -33 -38 -12 -106 -34 -150 -48 -194 -62 -725 -249 -790 -278 -11 -5
-81 -31 -155 -59 -74 -28 -144 -55 -155 -60 -11 -5 -45 -19 -75 -30 -30 -11
-64 -25 -75 -30 -11 -5 -72 -30 -135 -56 -63 -26 -177 -73 -253 -106 -129 -55
-176 -76 -302 -133 -124 -57 -195 -89 -260 -118 -38 -17 -243 -118 -455 -224
-427 -214 -526 -266 -810 -426 -69 -38 -145 -81 -170 -95 -204 -113 -858 -516
-1100 -678 -201 -134 -433 -293 -574 -394 -102 -73 -596 -442 -666 -498 -30
-24 -62 -49 -70 -55 -91 -70 -170 -134 -246 -197 -50 -41 -113 -93 -139 -115
-27 -22 -83 -69 -125 -105 -42 -36 -100 -85 -130 -110 -759 -636 -1760 -1660
-2434 -2490 -251 -309 -247 -304 -516 -662 -349 -465 -633 -876 -908 -1313
-60 -95 -440 -730 -464 -775 -14 -25 -49 -88 -78 -140 -56 -99 -72 -130 -147
-270 -25 -47 -63 -117 -84 -156 -54 -100 -308 -610 -363 -727 -51 -109 -191
-415 -211 -462 -7 -16 -24 -55 -38 -85 -14 -30 -55 -127 -92 -215 -37 -88 -72
-173 -80 -190 -15 -34 -135 -337 -172 -435 -14 -36 -37 -97 -53 -136 -15 -39
-31 -85 -35 -102 -3 -18 -11 -34 -16 -37 -5 -4 -9 -13 -9 -22 0 -8 -6 -29 -14
-46 -7 -18 -24 -61 -36 -97 -12 -36 -25 -72 -30 -80 -4 -9 -11 -31 -15 -50 -4
-19 -12 -41 -16 -50 -10 -16 -136 -396 -193 -580 -67 -218 -170 -580 -221
-775 -49 -187 -127 -502 -154 -620 -18 -77 -36 -158 -41 -180 -59 -249 -155
-750 -205 -1065 -86 -539 -140 -966 -180 -1425 -8 -93 -17 -188 -20 -210 -3
-22 -15 -197 -27 -390 -20 -314 -22 -435 -22 -1175 0 -740 2 -861 22 -1175 12
-192 24 -368 27 -390 3 -22 12 -116 20 -210 40 -457 97 -909 180 -1430 15 -90
25 -149 64 -367 35 -197 106 -543 141 -693 5 -22 23 -103 41 -180 27 -118 105
-433 154 -620 51 -195 154 -557 221 -775 57 -184 183 -564 193 -580 4 -9 12
-31 16 -50 4 -19 11 -41 15 -50 5 -8 18 -44 30 -80 12 -36 29 -79 36 -97 8
-17 14 -38 14 -46 0 -9 4 -18 9 -22 5 -3 13 -19 16 -37 4 -17 20 -63 35 -102
16 -39 39 -100 53 -136 37 -98 157 -401 172 -435 8 -16 43 -102 80 -190 37
-88 78 -185 92 -215 14 -30 31 -68 38 -85 20 -47 160 -353 211 -462 25 -54
108 -222 184 -374 127 -254 159 -316 270 -524 78 -144 88 -162 140 -255 29
-52 64 -115 78 -140 24 -45 404 -680 464 -775 531 -843 1175 -1705 1848 -2475
596 -681 1412 -1489 2010 -1990 30 -25 88 -74 130 -110 42 -36 98 -83 125
-105 26 -22 89 -74 139 -115 76 -63 155 -127 246 -197 8 -6 40 -31 70 -55 70
-56 564 -425 666 -498 141 -101 373 -260 574 -394 242 -162 896 -565 1100
-678 25 -14 101 -57 170 -95 284 -160 383 -212 810 -426 212 -106 417 -207
455 -224 65 -29 136 -61 260 -118 126 -57 173 -78 302 -133 76 -33 190 -80
253 -106 63 -26 124 -51 135 -56 11 -5 45 -19 75 -30 30 -11 64 -25 75 -30 11
-5 81 -32 155 -60 74 -28 144 -54 155 -59 65 -29 596 -216 790 -278 44 -14
112 -36 150 -48 39 -13 86 -28 105 -33 19 -6 80 -24 135 -42 55 -17 138 -42
185 -56 47 -13 110 -31 140 -40 30 -9 66 -20 80 -25 14 -4 43 -13 65 -18 57
-14 137 -35 230 -61 136 -37 525 -133 650 -160 28 -6 82 -18 120 -26 143 -32
202 -44 280 -60 44 -9 109 -22 145 -29 163 -33 298 -58 600 -110 597 -103
1401 -195 1965 -225 99 -5 248 -15 330 -20 239 -17 1279 -24 1620 -11 466 18
947 49 1255 81 544 56 841 96 1445 195 227 38 754 140 845 165 19 5 80 19 135
31 302 65 1032 254 1195 309 14 5 52 16 85 25 33 9 78 23 100 30 22 7 87 28
145 45 217 67 706 231 805 270 11 4 103 38 205 76 102 37 189 71 195 76 5 4
16 8 25 8 8 0 26 6 40 13 14 7 54 24 90 37 36 13 70 26 75 30 6 4 33 15 60 25
28 9 64 23 80 31 17 7 107 45 200 84 94 39 184 78 201 85 16 8 66 29 110 48
43 19 108 48 144 65 191 88 228 105 260 119 157 71 800 396 995 503 33 18 88
48 122 66 34 19 85 47 113 64 28 16 53 30 55 30 15 0 755 441 895 534 19 13
76 49 125 81 117 76 394 260 515 343 196 135 610 436 747 543 32 25 119 92
193 149 151 116 404 322 583 475 65 55 142 120 170 144 29 23 68 57 87 75 19
17 78 69 130 116 327 292 768 714 1034 989 44 47 99 103 121 126 33 34 121
128 315 335 8 9 46 52 84 96 39 43 75 84 80 89 16 15 135 150 201 230 33 39
69 81 81 95 52 59 154 180 206 245 31 39 89 111 130 160 193 239 578 745 685
900 23 33 69 98 102 145 87 122 491 727 536 802 12 20 101 165 130 212 112
182 335 561 335 570 0 3 -75 62 -167 132 -92 70 -173 132 -180 138 -32 28 -43
36 -50 36 -7 0 -220 -355 -246 -409 -4 -9 -15 -28 -25 -43 -9 -15 -48 -78 -86
-140 -38 -62 -83 -135 -101 -163 -18 -27 -65 -102 -105 -165 -276 -435 -716
-1059 -994 -1410 -29 -36 -83 -105 -121 -154 -91 -115 -191 -237 -340 -414
-66 -79 -136 -163 -155 -186 -19 -23 -100 -116 -180 -206 -722 -818 -1542
-1599 -2405 -2288 -77 -62 -156 -125 -175 -140 -316 -254 -1091 -803 -1440
-1021 -30 -19 -91 -58 -135 -86 -124 -80 -614 -374 -755 -452 -25 -14 -75 -43
-112 -64 -36 -21 -69 -39 -72 -39 -4 0 -23 -10 -44 -23 -20 -13 -82 -48 -137
-77 -55 -29 -120 -65 -145 -78 -68 -37 -640 -323 -760 -380 -99 -47 -132 -62
-303 -141 -37 -17 -69 -31 -72 -31 -2 0 -48 -20 -101 -45 -53 -25 -98 -45
-100 -45 -4 0 -47 -18 -119 -50 -18 -8 -86 -37 -140 -59 -86 -37 -190 -78
-300 -121 -71 -28 -144 -58 -162 -66 -17 -8 -38 -14 -46 -14 -9 0 -18 -4 -22
-9 -3 -5 -19 -12 -36 -16 -17 -4 -42 -13 -57 -21 -15 -8 -32 -14 -38 -14 -7 0
-25 -7 -40 -15 -16 -8 -36 -15 -44 -15 -9 0 -20 -4 -25 -9 -6 -5 -26 -14 -45
-19 -19 -6 -100 -33 -180 -62 -190 -67 -400 -137 -585 -194 -82 -26 -168 -53
-190 -61 -22 -7 -65 -20 -95 -29 -30 -9 -95 -28 -145 -42 -203 -59 -371 -105
-540 -148 -40 -11 -442 -107 -500 -121 -33 -7 -89 -20 -125 -28 -136 -32 -396
-86 -565 -117 -33 -6 -96 -18 -140 -26 -564 -105 -1204 -192 -1770 -239 -99
-8 -193 -17 -210 -20 -16 -3 -124 -10 -240 -16 -115 -6 -226 -13 -245 -15 -19
-2 -255 -9 -524 -15 -507 -12 -1372 -1 -1611 21 -60 5 -186 14 -280 20 -564
34 -1374 133 -1930 235 -49 9 -126 23 -170 30 -44 8 -114 21 -155 29 -41 8
-111 21 -155 30 -44 8 -123 24 -175 36 -52 11 -115 25 -140 30 -131 26 -683
160 -890 216 -30 8 -77 21 -105 29 -60 16 -218 61 -260 74 -16 5 -64 19 -105
31 -41 12 -86 25 -100 30 -14 4 -59 18 -100 31 -120 36 -653 213 -790 262
-251 90 -741 278 -825 317 -11 5 -112 48 -225 96 -113 48 -227 97 -255 109
-27 13 -72 33 -100 45 -49 22 -108 49 -242 111 -266 123 -678 329 -913 457
-36 19 -103 55 -150 80 -47 24 -89 48 -95 52 -5 4 -35 21 -65 37 -160 87 -593
342 -805 475 -309 194 -608 392 -827 546 -49 34 -126 89 -173 122 -92 65 -243
175 -289 212 -16 13 -48 37 -71 53 -140 100 -483 369 -705 554 -69 57 -147
122 -175 145 -56 47 -207 177 -215 186 -3 3 -41 36 -85 74 -94 81 -372 334
-500 456 -115 109 -674 667 -786 785 -346 365 -911 1024 -1169 1364 -14 18
-36 46 -49 62 -26 32 -146 192 -211 279 -23 30 -58 78 -78 105 -157 211 -260
358 -495 710 -173 258 -195 293 -310 475 -74 117 -377 620 -377 625 0 2 -43
79 -95 170 -52 92 -95 168 -95 171 0 2 -22 43 -48 91 -102 185 -442 851 -442
867 0 2 -26 59 -59 127 -32 68 -69 147 -81 174 -12 28 -33 73 -45 100 -13 28
-33 73 -45 100 -26 62 -31 73 -69 158 -17 38 -31 71 -31 73 0 4 -17 45 -50
119 -5 11 -25 61 -46 110 -20 50 -42 104 -49 120 -7 17 -26 66 -43 110 -17 44
-52 132 -77 197 -25 64 -45 119 -45 123 0 4 -6 21 -14 38 -14 34 -88 237 -126
347 -12 36 -26 74 -30 85 -14 32 -125 370 -165 500 -20 66 -40 131 -45 145 -5
14 -27 90 -50 170 -23 80 -45 156 -50 170 -4 14 -16 54 -25 90 -10 36 -23 85
-31 110 -18 62 -58 214 -105 405 -22 88 -42 169 -45 180 -6 21 -21 90 -48 210
-9 39 -23 99 -31 135 -8 36 -22 99 -31 140 -8 41 -21 104 -29 140 -36 177
-107 561 -125 680 -4 30 -13 82 -19 115 -15 87 -61 399 -81 550 -64 493 -108
994 -142 1595 -16 286 -16 1574 0 1860 34 601 78 1102 142 1595 20 151 66 463
81 550 6 33 15 85 19 115 18 119 89 503 125 680 8 36 21 99 29 140 9 41 23
104 31 140 8 36 22 97 31 135 27 120 42 189 48 210 3 11 23 92 45 180 47 191
87 343 105 405 8 25 21 74 31 110 9 36 21 76 25 90 5 14 27 90 50 170 23 80
45 156 50 170 5 14 25 79 45 145 40 130 151 468 165 500 4 11 18 49 30 85 38
110 112 313 126 347 8 17 14 34 14 38 0 4 20 59 45 123 25 65 60 153 77 197
17 44 36 94 43 110 7 17 29 71 49 120 21 50 41 99 46 110 33 74 50 115 50 119
0 2 14 35 31 73 38 85 43 96 69 158 12 28 32 73 45 100 12 28 33 73 45 100 12
28 49 106 81 174 33 68 59 125 59 127 0 16 340 682 442 867 26 48 48 89 48 91
0 3 43 79 95 171 52 91 95 168 95 170 0 5 303 508 377 625 115 182 137 217
310 475 235 352 338 499 495 710 20 28 55 75 78 105 65 87 185 247 211 279 13
16 35 44 49 62 252 333 837 1015 1169 1364 118 124 674 679 796 795 116 110
386 356 495 450 41 36 77 67 80 70 8 9 163 142 215 186 28 23 106 88 175 145
222 185 565 454 705 554 23 17 55 40 71 53 46 37 197 147 289 212 47 33 124
88 173 122 219 154 518 352 827 546 212 133 645 388 805 475 30 16 60 33 65
37 6 4 48 28 95 52 47 25 114 61 150 80 174 95 507 263 720 366 149 71 326
153 435 202 28 12 73 32 100 45 28 12 142 61 255 109 113 48 214 91 225 96 84
39 574 227 825 317 137 49 670 226 790 262 41 13 86 27 100 31 14 5 59 18 100
30 41 12 89 26 105 31 45 14 202 59 263 75 28 8 76 20 105 28 195 53 756 190
887 216 25 5 88 19 140 30 52 12 131 28 175 36 44 9 114 22 155 30 41 8 98 19
125 24 460 82 573 100 980 155 371 50 802 93 1140 115 88 5 219 15 290 20 116
10 788 29 1018 30 l87 0 0 255 0 255 -262 -2 c-145 -1 -346 -5 -448 -8z"/>
<path d="M21530 41564 c-921 -55 -1717 -148 -2470 -288 -166 -31 -248 -47
-315 -60 -38 -8 -106 -21 -150 -30 -44 -8 -150 -31 -235 -51 -85 -20 -175 -40
-200 -45 -25 -5 -83 -19 -130 -31 -47 -12 -110 -27 -140 -34 -30 -7 -107 -26
-170 -43 -63 -17 -126 -34 -140 -37 -27 -7 -106 -29 -185 -51 -87 -24 -262
-75 -375 -109 -27 -8 -72 -22 -100 -30 -27 -8 -71 -21 -97 -29 -110 -32 -509
-162 -538 -175 -11 -5 -49 -19 -85 -31 -36 -11 -74 -25 -85 -29 -11 -5 -85
-32 -165 -61 -80 -28 -153 -56 -162 -61 -10 -5 -23 -9 -28 -9 -6 0 -30 -8 -53
-19 -23 -10 -76 -31 -117 -46 -41 -15 -93 -35 -115 -45 -22 -9 -60 -25 -85
-34 -25 -10 -54 -22 -65 -27 -11 -4 -65 -26 -120 -49 -55 -23 -109 -45 -120
-50 -11 -5 -42 -18 -70 -30 -134 -57 -143 -61 -228 -99 -38 -17 -70 -31 -72
-31 -2 0 -45 -20 -97 -44 -51 -24 -118 -55 -148 -68 -316 -145 -878 -428
-1125 -568 -22 -13 -62 -35 -90 -50 -180 -98 -712 -411 -854 -503 -27 -18 -96
-61 -153 -97 -133 -84 -548 -361 -658 -439 -47 -33 -107 -76 -135 -95 -54 -37
-244 -175 -310 -225 -22 -17 -78 -59 -125 -93 -210 -156 -754 -592 -875 -701
-11 -10 -58 -51 -105 -90 -47 -40 -105 -90 -129 -112 -55 -50 -50 -46 -151
-135 -345 -305 -812 -762 -1215 -1190 -120 -128 -398 -437 -485 -540 -30 -36
-61 -72 -69 -79 -23 -25 -294 -352 -356 -431 -32 -41 -62 -77 -65 -80 -11 -10
-220 -279 -341 -440 -494 -659 -994 -1423 -1354 -2070 -32 -58 -74 -132 -92
-165 -89 -157 -197 -362 -347 -660 -143 -284 -185 -372 -296 -615 -104 -229
-122 -270 -209 -475 -40 -93 -78 -183 -86 -200 -30 -70 -221 -557 -248 -635
-9 -25 -32 -90 -52 -145 -20 -55 -41 -113 -47 -130 -5 -16 -14 -39 -19 -50
-12 -28 -161 -479 -199 -605 -30 -99 -40 -129 -70 -225 -7 -22 -16 -53 -21
-70 -4 -16 -23 -84 -42 -150 -41 -137 -124 -443 -143 -525 -7 -30 -22 -91 -34
-135 -12 -44 -25 -98 -30 -120 -5 -22 -15 -67 -23 -100 -22 -91 -48 -203 -62
-275 -8 -36 -23 -108 -35 -160 -11 -52 -30 -142 -41 -200 -11 -58 -31 -161
-45 -230 -14 -69 -29 -152 -34 -185 -5 -33 -18 -116 -30 -185 -94 -549 -174
-1233 -215 -1855 -33 -489 -38 -674 -38 -1285 0 -611 5 -796 38 -1285 41 -622
121 -1306 215 -1855 12 -69 25 -152 30 -185 5 -33 20 -116 34 -185 14 -69 34
-172 45 -230 11 -58 30 -148 41 -200 12 -52 27 -124 35 -160 14 -72 40 -184
62 -275 8 -33 18 -78 23 -100 5 -22 18 -76 30 -120 12 -44 27 -105 34 -135 19
-82 102 -388 143 -525 19 -66 38 -133 42 -150 5 -16 14 -48 21 -70 30 -96 40
-126 70 -225 38 -126 187 -577 199 -605 5 -11 14 -33 19 -50 6 -16 27 -75 47
-130 20 -55 43 -120 52 -145 27 -78 218 -565 248 -635 8 -16 46 -106 86 -200
87 -205 105 -246 209 -475 34 -74 82 -180 108 -235 69 -148 317 -639 405 -803
43 -79 81 -151 86 -160 5 -9 25 -44 44 -77 18 -33 60 -107 92 -165 449 -806
1063 -1715 1684 -2495 162 -203 426 -523 441 -535 3 -3 33 -36 65 -75 32 -38
73 -86 90 -105 18 -19 56 -62 86 -96 480 -537 1057 -1116 1519 -1524 47 -41
105 -93 129 -115 24 -22 49 -44 55 -50 6 -5 49 -42 96 -82 47 -39 94 -80 105
-90 121 -109 665 -545 875 -701 47 -34 103 -76 125 -93 66 -50 256 -188 310
-225 28 -19 88 -62 135 -95 110 -78 525 -355 658 -439 57 -36 126 -79 153 -97
142 -92 674 -405 854 -503 28 -15 68 -37 90 -50 247 -140 809 -423 1125 -568
30 -13 97 -44 148 -68 52 -24 95 -44 97 -44 2 0 34 -14 72 -31 88 -39 98 -44
158 -69 83 -35 119 -51 140 -60 11 -5 65 -27 120 -50 55 -23 109 -45 120 -49
11 -5 40 -17 65 -27 25 -9 63 -25 85 -34 22 -10 74 -30 115 -45 41 -15 94 -36
117 -46 23 -11 47 -19 53 -19 5 0 18 -4 28 -9 9 -5 82 -33 162 -61 80 -29 154
-56 165 -61 11 -4 49 -18 85 -29 36 -12 74 -26 85 -31 29 -13 428 -143 538
-175 26 -8 69 -21 97 -29 28 -8 73 -22 100 -30 70 -21 131 -39 230 -68 209
-60 265 -75 605 -162 143 -36 280 -70 305 -75 25 -5 115 -25 200 -45 85 -20
191 -43 235 -51 44 -9 112 -22 150 -30 122 -25 357 -68 478 -89 655 -112 1176
-176 1867 -230 532 -41 763 -47 1525 -43 414 3 815 10 910 16 537 38 715 52
1050 88 333 35 865 109 1143 159 45 8 121 22 170 30 48 8 110 20 137 25 28 6
140 28 250 50 458 90 912 199 1340 320 61 17 128 36 150 41 22 5 51 14 65 18
14 5 59 19 100 31 41 12 86 25 100 30 14 5 79 25 145 45 191 59 738 242 790
264 11 5 97 37 190 71 94 35 189 71 212 81 23 11 48 19 55 19 8 0 18 4 23 8 6
5 33 17 60 27 28 9 64 23 80 31 17 7 80 33 140 57 141 57 296 122 363 153 29
13 55 24 57 24 3 0 40 16 82 36 43 19 92 42 108 49 17 7 71 32 120 55 50 23
106 49 125 57 74 33 739 364 815 406 44 24 133 72 198 106 107 56 408 227 482
272 17 10 39 23 50 28 23 10 276 161 380 227 456 289 572 365 835 547 773 536
1574 1183 2240 1812 124 118 679 671 801 800 165 174 530 581 624 695 17 20
98 118 180 217 250 300 311 377 555 698 336 444 762 1067 1001 1463 24 40 51
84 59 97 29 46 134 220 148 245 7 14 22 39 32 55 11 17 23 37 27 45 4 8 32 58
63 110 31 52 59 102 62 111 5 12 -15 32 -70 75 -43 32 -81 62 -87 67 -5 4 -53
40 -105 80 -52 39 -104 80 -114 89 -26 24 -28 23 -46 -15 -44 -91 -404 -694
-545 -912 -77 -119 -410 -616 -452 -675 -26 -36 -72 -101 -103 -145 -82 -116
-159 -222 -205 -282 -22 -28 -61 -80 -88 -115 -115 -153 -236 -309 -292 -378
-16 -20 -43 -54 -60 -75 -16 -21 -55 -68 -85 -104 -30 -36 -72 -86 -92 -111
-66 -82 -227 -271 -291 -343 -34 -39 -84 -96 -111 -126 -359 -408 -999 -1057
-1367 -1386 -24 -22 -89 -81 -144 -131 -98 -88 -277 -244 -385 -334 -30 -25
-72 -61 -95 -80 -23 -19 -63 -53 -90 -75 -27 -22 -53 -45 -59 -50 -6 -6 -42
-35 -81 -65 -38 -30 -79 -63 -90 -72 -11 -9 -90 -71 -175 -137 -85 -67 -168
-131 -184 -143 -16 -13 -45 -34 -65 -48 -20 -14 -44 -33 -55 -42 -11 -10 -38
-30 -60 -45 -23 -16 -46 -32 -52 -38 -6 -5 -22 -17 -34 -25 -12 -8 -56 -40
-98 -71 -286 -207 -625 -436 -994 -670 -97 -62 -538 -327 -608 -366 -30 -16
-107 -59 -170 -95 -63 -36 -144 -81 -180 -100 -36 -20 -92 -50 -125 -68 -188
-102 -664 -344 -807 -409 -36 -16 -106 -49 -155 -72 -97 -45 -207 -96 -238
-109 -11 -5 -51 -23 -90 -40 -122 -55 -487 -208 -645 -270 -30 -11 -64 -25
-75 -30 -32 -14 -189 -73 -330 -125 -71 -26 -139 -51 -150 -56 -47 -20 -591
-202 -775 -258 -58 -18 -123 -39 -145 -47 -22 -7 -58 -18 -80 -23 -22 -5 -64
-17 -92 -25 -131 -39 -161 -48 -213 -62 -30 -8 -79 -22 -107 -30 -101 -27
-168 -45 -225 -60 -185 -46 -273 -67 -361 -88 -250 -58 -374 -86 -432 -96 -27
-5 -57 -11 -65 -14 -8 -3 -53 -13 -100 -22 -47 -8 -119 -22 -160 -30 -157 -31
-351 -65 -505 -90 -55 -8 -140 -22 -190 -30 -274 -44 -589 -84 -925 -118 -80
-9 -167 -18 -195 -21 -82 -9 -349 -28 -805 -57 -281 -18 -1550 -18 -1825 0
-110 7 -265 17 -345 22 -155 10 -373 27 -455 35 -555 54 -992 112 -1490 199
-169 29 -260 45 -280 50 -11 3 -78 17 -150 30 -71 14 -173 35 -225 46 -52 12
-115 25 -140 30 -25 5 -85 19 -135 30 -49 12 -117 27 -150 35 -58 13 -117 27
-240 58 -33 9 -87 22 -120 31 -33 8 -87 22 -120 31 -33 9 -80 21 -105 26 -25
6 -54 14 -65 19 -11 4 -38 13 -60 18 -41 11 -226 63 -305 87 -25 7 -63 19 -85
25 -22 6 -58 17 -80 25 -22 7 -87 28 -145 46 -58 17 -157 50 -220 71 -63 22
-132 44 -153 49 -21 5 -45 13 -55 18 -9 5 -46 19 -82 31 -36 12 -74 26 -85 30
-11 4 -49 18 -85 30 -36 12 -79 29 -97 36 -17 8 -35 14 -41 14 -5 0 -23 7 -38
15 -16 8 -37 15 -46 15 -9 0 -19 4 -23 9 -3 5 -20 13 -37 17 -18 3 -39 10 -48
15 -8 5 -58 25 -110 44 -52 20 -104 40 -115 45 -11 5 -42 18 -70 28 -53 21
-286 117 -320 132 -11 5 -42 18 -70 30 -123 52 -131 56 -217 94 -124 55 -200
90 -393 179 -176 82 -794 396 -935 474 -25 14 -74 41 -110 61 -36 19 -69 38
-75 42 -5 4 -46 27 -90 50 -44 24 -131 74 -193 112 -62 37 -117 68 -122 68 -5
0 -15 6 -22 13 -8 6 -34 23 -58 36 -25 13 -81 47 -125 76 -44 28 -113 71 -153
96 -40 24 -84 51 -97 59 -13 8 -45 28 -72 44 -53 33 -579 385 -658 441 -27 20
-61 43 -75 52 -14 10 -44 31 -66 48 -23 16 -52 37 -64 45 -68 45 -618 463
-774 588 -226 181 -647 536 -727 612 -8 8 -56 51 -105 95 -49 44 -123 112
-164 150 -41 39 -104 97 -140 130 -204 188 -828 825 -1035 1057 -27 30 -80 89
-116 129 -191 212 -578 677 -768 923 -71 91 -412 547 -431 576 -8 12 -29 41
-46 64 -103 138 -394 571 -550 816 -32 50 -28 44 -103 167 -30 48 -74 118 -98
155 -24 37 -43 69 -43 72 0 3 -13 24 -29 48 -15 24 -43 70 -61 103 -18 33 -61
108 -96 166 -35 59 -64 110 -64 113 0 4 -10 23 -23 44 -30 47 -104 181 -219
397 -67 125 -334 659 -390 780 -114 244 -128 276 -128 279 0 2 -16 39 -36 83
-20 43 -47 102 -60 131 -13 29 -24 55 -24 58 0 3 -11 30 -25 60 -14 30 -36 82
-50 117 -14 34 -30 71 -35 82 -23 50 -49 114 -66 160 -10 28 -24 61 -31 75 -7
14 -13 31 -13 38 0 7 -4 20 -10 30 -5 9 -26 60 -45 112 -20 52 -42 111 -50
130 -63 162 -75 193 -75 201 0 4 -5 20 -12 36 -22 55 -69 191 -140 403 -39
118 -74 224 -79 235 -4 11 -17 54 -29 95 -13 41 -26 84 -31 95 -4 11 -17 52
-28 90 -11 39 -33 115 -49 170 -57 195 -84 290 -99 345 -48 177 -119 462 -148
585 -36 156 -45 195 -59 260 -9 39 -23 104 -32 145 -8 41 -21 104 -29 140 -61
296 -109 558 -144 790 -7 41 -18 116 -26 165 -8 50 -21 144 -30 210 -9 66 -23
165 -30 220 -8 55 -17 134 -21 175 -3 41 -8 84 -11 95 -6 30 -31 297 -48 503
-8 100 -16 186 -19 190 -2 4 -7 90 -10 192 -4 102 -12 219 -19 260 -16 105
-16 1794 0 1900 7 41 15 158 19 260 3 102 8 188 10 192 3 4 11 90 19 190 17
206 42 473 48 503 3 11 8 54 11 95 4 41 13 120 21 175 7 55 21 154 30 220 9
66 22 161 30 210 8 50 19 124 26 165 35 232 83 494 144 790 8 36 21 99 29 140
17 80 39 178 61 275 8 33 21 89 29 125 23 99 55 227 104 420 53 202 60 227
144 515 16 55 38 132 49 170 11 39 24 79 28 90 5 11 18 54 31 95 12 41 25 84
29 95 5 11 40 117 79 235 71 212 118 348 140 403 7 16 12 32 12 36 0 8 12 39
75 201 8 19 30 78 50 130 19 52 40 103 45 112 6 10 10 23 10 28 0 11 33 91 50
122 6 10 10 23 10 28 0 10 15 48 50 125 5 11 21 48 35 82 14 35 36 87 50 117
14 30 25 57 25 60 0 3 11 29 24 58 13 29 40 88 60 131 20 44 36 81 36 83 0 3
14 35 128 279 56 121 323 655 390 780 115 216 189 350 219 397 13 21 23 40 23
44 0 3 29 54 64 113 35 58 78 133 96 166 18 33 46 79 61 103 16 24 29 45 29
48 0 3 19 35 43 72 24 37 68 107 98 155 75 123 71 117 103 167 156 245 447
678 550 816 17 23 38 52 46 64 19 29 360 485 431 576 190 246 577 711 768 923
36 40 89 99 116 129 207 232 831 869 1035 1057 36 33 99 91 140 130 41 38 115
106 164 150 49 44 97 87 105 95 80 76 501 431 727 612 156 125 706 543 774
588 12 8 41 29 64 45 22 17 52 38 66 48 14 9 48 32 75 52 79 56 605 408 658
441 27 16 59 36 72 44 13 8 57 35 97 59 40 25 109 68 153 96 44 29 100 63 125
76 24 13 50 30 58 37 7 6 17 12 22 12 5 0 60 31 122 68 62 38 149 88 193 112
44 23 85 46 90 50 6 4 39 23 75 42 36 20 90 49 120 66 171 94 755 389 960 485
157 73 370 169 450 203 19 9 44 19 55 24 11 5 43 18 70 30 28 12 59 25 70 30
65 29 375 155 470 191 33 13 64 27 70 31 5 4 16 8 25 8 8 0 27 6 42 14 15 8
40 17 57 21 17 4 33 11 36 16 4 5 14 9 23 9 9 0 30 7 46 15 15 8 33 15 38 15
6 0 24 6 41 14 18 7 61 24 97 36 36 12 74 26 85 30 11 4 49 18 85 30 36 12 73
26 82 31 10 5 34 13 55 18 21 5 90 27 153 49 63 21 162 54 220 71 58 18 123
39 145 46 22 8 58 19 80 25 22 6 60 18 85 25 79 24 264 76 305 87 22 5 49 14
60 18 11 5 40 13 65 19 25 5 72 17 105 26 33 9 87 23 120 31 33 9 85 22 115
30 84 21 179 44 245 59 33 8 101 23 150 35 138 32 226 51 275 61 25 4 90 18
145 29 520 110 1185 211 1805 275 267 28 399 39 665 55 88 6 230 15 315 20 85
6 327 13 538 17 l382 6 0 254 0 253 -367 -1 c-203 -1 -469 -8 -593 -15z"/>
<path d="M10826 35679 c-3 -17 -6 -6135 -6 -13595 l0 -13563 38 -35 c20 -19
62 -53 92 -77 30 -23 57 -45 60 -49 3 -3 37 -30 75 -60 39 -30 72 -57 75 -60
3 -3 46 -37 95 -75 50 -38 92 -72 95 -76 6 -7 375 -286 409 -309 13 -8 69 -49
127 -90 335 -242 595 -417 1036 -695 100 -63 489 -295 495 -295 3 0 55 -30
117 -66 61 -36 119 -70 129 -75 10 -5 44 -24 75 -41 55 -30 80 -43 257 -138
89 -48 605 -307 712 -357 37 -18 111 -52 163 -76 272 -127 400 -181 408 -172
4 4 8 3073 10 6821 l2 6814 3423 2 3422 3 3 1537 2 1538 -3422 2 -3423 3 -3
4053 c-1 2228 2 4052 6 4052 9 0 177 -170 737 -745 214 -220 493 -506 620
-635 127 -129 303 -309 391 -400 210 -216 580 -595 874 -895 130 -132 411
-420 625 -640 215 -219 496 -506 625 -637 129 -131 237 -242 240 -247 5 -9
567 -585 1021 -1046 217 -222 455 -464 639 -654 145 -149 856 -878 1021 -1046
92 -93 218 -223 281 -288 l114 -118 104 108 c57 59 210 216 340 348 129 132
406 416 615 630 208 215 490 503 625 640 135 138 421 430 635 650 214 220 498
510 630 645 132 135 416 425 630 645 215 220 498 510 630 645 132 135 413 423
625 640 358 368 491 503 1110 1135 201 205 471 482 1119 1147 69 71 128 128
133 128 4 0 8 -5589 8 -12420 0 -9018 3 -12420 11 -12420 11 0 19 3 152 64 42
20 80 36 82 36 5 0 103 45 290 133 127 60 795 395 810 406 6 5 55 32 110 61
55 29 117 64 137 76 21 13 40 24 44 24 4 0 40 20 81 45 40 25 76 45 79 45 6 0
542 320 621 371 29 19 92 59 140 89 91 57 592 391 629 419 12 9 32 23 44 31
12 8 59 42 105 75 46 33 93 67 105 75 38 26 512 383 575 433 350 281 436 354
451 383 12 22 14 2204 14 13600 l0 13574 -2232 0 -2233 1 -820 -825 c-451
-453 -1116 -1123 -1479 -1488 -362 -364 -1393 -1401 -2290 -2303 -898 -902
-1854 -1863 -2125 -2135 l-492 -495 -810 815 c-446 448 -1148 1155 -1561 1570
-413 415 -1588 1596 -2612 2625 -1024 1028 -1943 1952 -2043 2052 l-182 183
-2229 0 -2229 0 -7 -31z"/>
<path d="M10406 35537 c-21 -23 -140 -147 -265 -276 -124 -128 -228 -237 -231
-241 -3 -4 -111 -117 -240 -250 -129 -134 -255 -264 -280 -290 -25 -26 -90
-94 -145 -151 -55 -57 -206 -214 -335 -349 -129 -134 -298 -309 -375 -389
-142 -148 -326 -339 -357 -373 -17 -17 -18 -553 -18 -10957 l0 -10939 55 -71
c54 -69 112 -142 184 -230 20 -24 62 -76 94 -115 32 -39 69 -82 81 -96 12 -14
59 -70 106 -125 47 -55 87 -102 90 -105 3 -3 36 -41 75 -85 38 -44 74 -85 80
-91 325 -359 409 -447 725 -764 248 -248 323 -320 529 -510 145 -134 166 -153
224 -202 l47 -40 0 13346 c0 7340 -1 13346 -2 13346 -2 0 -20 -19 -42 -43z
m-266 -3524 l-1 -118 -47 -32 c-27 -18 -51 -33 -55 -33 -4 0 -7 53 -7 118 l1
117 42 32 c66 50 67 48 67 -84z m0 -388 l0 -114 -44 -31 c-25 -16 -49 -30 -55
-30 -7 0 -11 40 -11 115 0 114 0 115 28 132 15 10 33 23 40 30 7 7 20 13 28
13 11 0 14 -22 14 -115z m-160 -109 l0 -114 -47 -31 c-25 -17 -50 -31 -55 -31
-4 0 -8 51 -8 113 l0 113 43 32 c23 17 48 31 55 32 9 0 12 -29 12 -114z m160
-275 l0 -119 -44 -26 c-25 -14 -49 -26 -55 -26 -7 0 -11 40 -11 114 l0 114 38
23 c20 13 39 27 40 31 2 4 10 8 18 8 11 0 14 -23 14 -119z m-1352 -1128 l-3
-1188 -35 -17 c-19 -9 -41 -17 -47 -18 -10 0 -13 241 -13 1173 l0 1173 43 32
c23 17 45 31 50 32 4 0 6 -534 5 -1187z m1192 1024 l0 -113 -45 -32 c-25 -18
-50 -32 -55 -32 -6 0 -10 47 -10 114 l0 115 43 29 c66 47 67 46 67 -81z m-160
-106 l0 -110 -46 -30 c-25 -17 -49 -31 -55 -31 -5 0 -9 48 -9 113 l0 113 42
27 c67 43 68 41 68 -82z m320 -176 l0 -115 -41 -25 c-72 -46 -69 -50 -69 81
l0 119 43 27 c66 43 67 43 67 -87z m-160 -100 l0 -115 -40 -25 c-68 -43 -70
-40 -70 88 l1 112 42 27 c67 42 67 42 67 -87z m-160 -99 l0 -114 -44 -26 c-25
-14 -49 -26 -55 -26 -7 0 -11 38 -11 110 l0 110 47 30 c26 17 51 30 55 30 4 0
8 -51 8 -114z m320 -190 l0 -114 -44 -26 c-25 -14 -49 -26 -55 -26 -7 0 -11
40 -11 114 l0 115 43 25 c67 41 67 40 67 -88z m-160 -96 l0 -109 -43 -26 c-24
-14 -49 -25 -55 -25 -9 0 -12 34 -12 113 l0 112 38 22 c69 41 72 37 72 -87z
m160 -618 l0 -118 -45 -22 c-25 -12 -50 -22 -55 -22 -6 0 -10 47 -10 114 l0
114 43 26 c67 40 67 40 67 -92z m-160 -85 l0 -114 -49 -26 c-27 -15 -51 -27
-55 -27 -3 0 -6 53 -6 118 l0 118 43 22 c67 35 67 35 67 -91z m-160 -86 l0
-109 -36 -21 c-69 -41 -74 -35 -74 87 l0 107 38 22 c69 41 72 37 72 -86z m320
-216 l0 -115 -40 -20 c-69 -35 -70 -34 -70 94 l0 114 43 21 c68 34 67 34 67
-94z m0 -385 l0 -120 -27 -10 c-16 -6 -36 -15 -45 -20 -36 -21 -39 -13 -36
107 l3 117 40 22 c66 36 65 37 65 -96z m-160 -75 l0 -115 -44 -20 c-25 -11
-50 -20 -55 -20 -7 0 -11 40 -11 113 l0 113 43 22 c67 35 67 35 67 -93z m160
-368 l0 -113 -38 -17 c-72 -31 -72 -31 -72 96 l0 113 33 17 c17 8 42 16 55 16
22 1 22 -1 22 -112z m-160 -70 l0 -112 -40 -18 c-70 -30 -70 -31 -70 96 l0
113 33 17 c17 8 42 16 55 16 22 1 22 -1 22 -112z m-160 -67 l0 -111 -42 -19
c-69 -31 -68 -33 -68 94 l0 113 38 16 c72 30 72 30 72 -93z m320 -245 l0 -116
-46 -19 c-25 -11 -50 -20 -55 -20 -5 0 -9 52 -9 115 l0 115 38 19 c71 36 72
35 72 -94z m-162 -67 c-3 -124 -3 -124 -81 -143 l-28 -7 3 117 3 118 35 13
c72 26 71 27 68 -98z m-158 -63 l0 -115 -27 -11 c-16 -6 -40 -13 -55 -16 l-28
-5 0 111 0 112 43 19 c69 30 67 33 67 -95z m-1030 -653 l0 -758 -33 -12 c-73
-26 -67 -97 -67 742 l0 754 38 15 c20 9 43 16 50 16 9 1 12 -157 12 -757z
m1350 394 l0 -114 -40 -16 c-71 -28 -70 -29 -70 98 l0 114 33 16 c17 8 42 16
55 16 22 0 22 -2 22 -114z m-160 -59 l0 -113 -47 -17 c-27 -9 -51 -17 -55 -17
-5 0 -8 52 -8 115 l0 116 33 14 c17 8 42 14 55 15 22 0 22 -2 22 -113z m160
-765 l0 -117 -40 -13 c-73 -22 -71 -26 -68 105 l3 117 40 12 c68 21 65 25 65
-104z m-160 -47 c0 -128 4 -122 -78 -140 l-33 -7 3 117 3 117 35 13 c72 26 70
28 70 -100z m160 -669 c0 -63 -4 -117 -9 -120 -5 -4 -30 -9 -55 -12 l-46 -7 0
115 0 114 28 11 c15 6 39 11 55 12 l27 1 0 -114z m-160 -40 c0 -126 5 -118
-72 -132 l-38 -6 0 115 0 115 38 10 c75 20 72 25 72 -102z m-160 -39 l0 -113
-45 -12 c-25 -7 -50 -12 -55 -12 -6 0 -10 46 -10 115 l0 115 28 6 c15 3 32 7
37 9 43 14 45 10 45 -108z m-162 -38 l-3 -111 -40 -14 c-22 -7 -43 -14 -47
-14 -5 0 -8 51 -8 114 l0 114 28 10 c15 6 37 11 50 11 22 1 23 0 20 -110z
m482 -272 l0 -113 -46 -12 c-25 -7 -50 -10 -55 -7 -5 4 -9 57 -9 120 0 126 -4
120 78 124 l32 1 0 -113z m-160 -30 l0 -114 -39 -11 c-74 -23 -72 -26 -69 105
l3 118 30 6 c79 17 75 22 75 -104z m-1190 -912 l0 -765 -50 0 -50 0 0 754 0
753 43 10 c23 6 45 11 50 12 4 0 7 -343 7 -764z m1350 555 c0 -120 0 -120 -24
-120 -13 0 -38 -3 -55 -6 l-31 -6 0 115 0 116 33 10 c79 23 77 25 77 -109z m0
-384 l0 -113 -31 -7 c-81 -16 -79 -19 -79 108 0 126 -1 124 68 125 l42 1 0
-114z m-160 -21 l0 -114 -37 -6 c-21 -4 -45 -7 -53 -8 -12 -2 -15 18 -18 115
l-3 117 33 4 c86 10 78 21 78 -108z m-162 -27 l-3 -113 -52 -3 -53 -3 0 110 0
110 28 4 c15 2 40 5 55 6 l28 1 -3 -112z m320 -1842 c1 -1101 -1 -1693 -8
-1701 -7 -8 -26 -9 -67 -3 -32 4 -107 15 -168 23 -60 9 -137 20 -170 25 -33 5
-113 17 -177 26 l-118 17 0 1607 0 1607 38 6 c20 4 46 4 58 1 11 -3 56 0 100
6 43 6 126 18 184 25 58 8 130 17 159 21 30 4 66 13 80 21 15 7 40 12 56 11
l30 -3 3 -1689z m-1348 -756 l0 -760 -34 0 c-72 0 -66 -70 -66 766 l0 754 50
0 50 0 0 -760z m-19 -1710 c18 0 19 -24 19 -765 0 -575 -3 -765 -12 -765 -6 0
-29 8 -50 17 l-38 17 0 754 0 755 31 -7 c17 -3 40 -6 50 -6z m855 -1996 l34
-16 0 -109 c0 -121 0 -121 -67 -97 l-33 12 0 113 c0 126 1 128 66 97z m154
-60 l40 -16 0 -114 c0 -106 -1 -114 -19 -114 -11 0 -22 4 -26 9 -3 5 -19 12
-35 16 l-30 7 0 114 c0 127 -1 126 70 98z m160 -60 l40 -16 0 -114 c0 -128 0
-129 -72 -97 l-38 17 0 113 c0 126 -1 125 70 97z m173 -66 l27 -10 0 -114 c0
-113 0 -114 -23 -114 -13 0 -38 7 -55 16 l-32 15 0 116 0 115 28 -6 c15 -4 39
-12 55 -18z m-1363 -236 l35 -17 3 -763 c1 -419 0 -762 -4 -762 -3 0 -25 12
-50 26 l-44 26 0 754 c0 597 3 754 13 754 6 -1 28 -9 47 -18z m1030 -12 l40
-20 0 -110 c0 -123 0 -123 -70 -93 l-40 18 0 112 c0 127 1 128 70 93z m162
-67 l38 -17 0 -113 c0 -126 1 -125 -70 -97 l-40 16 0 114 c0 128 0 129 72 97z
m126 -52 c9 -5 29 -14 45 -20 l27 -11 0 -115 c0 -129 -1 -131 -70 -97 l-35 17
-3 118 c-3 119 0 127 36 108z m-136 -323 l48 -22 0 -113 c0 -127 -1 -128 -70
-95 l-35 17 -3 118 c-1 64 1 117 4 117 4 0 29 -10 56 -22z m168 -75 l40 -18 0
-112 c0 -127 -3 -131 -75 -96 l-35 17 0 113 c0 127 0 126 70 96z"/>
<path d="M9865 24223 c-88 -7 -200 -17 -250 -21 l-90 -7 -3 -575 -2 -575 255
-3 255 -4 0 601 c0 331 -1 600 -2 600 -2 -1 -75 -8 -163 -16z"/>
<path d="M9520 22961 l0 -39 55 -4 c30 -1 55 0 55 5 0 4 9 7 20 7 11 0 20 -4
20 -10 0 -6 42 -10 106 -10 l105 0 -3 38 -3 37 -151 1 c-83 1 -163 4 -178 8
-25 6 -26 5 -26 -33z"/>
<path d="M9520 22832 l0 -40 52 -7 c36 -5 53 -4 56 4 4 13 39 15 44 2 2 -6 49
-13 106 -17 l102 -7 0 40 0 41 -97 5 c-54 2 -127 5 -163 6 -36 1 -73 4 -82 7
-15 4 -18 -1 -18 -34z"/>
<path d="M9520 22641 l0 -89 51 -4 c28 -1 53 0 56 5 7 11 41 8 45 -4 2 -7 40
-12 103 -13 l100 -1 3 92 3 92 -103 3 c-57 2 -104 0 -106 -4 -5 -12 -42 -10
-42 2 0 6 -25 10 -55 10 l-55 0 0 -89z"/>
<path d="M9910 22623 l0 -98 60 -3 60 -3 0 94 0 94 -46 7 c-79 10 -74 16 -74
-91z"/>
<path d="M9520 22460 l0 -38 53 -4 c28 -2 54 0 55 4 5 12 40 9 44 -3 3 -8 42
-14 106 -17 l102 -5 0 36 c0 44 -2 45 -155 51 -60 2 -131 6 -157 9 l-48 6 0
-39z"/>
<path d="M9520 22325 c0 -29 4 -36 26 -41 14 -4 46 -4 71 0 25 3 51 2 57 -3 6
-5 54 -10 106 -12 l95 -4 3 38 c2 25 -1 37 -10 38 -163 12 -198 13 -198 7 0
-5 -9 -8 -20 -8 -11 0 -20 5 -20 10 0 6 -25 10 -55 10 l-55 0 0 -35z"/>
<path d="M9520 22180 c0 -56 -10 -51 110 -55 25 -1 72 -7 105 -13 33 -7 79
-12 103 -12 l42 0 0 49 c0 28 -4 52 -9 55 -5 3 -61 7 -125 8 -64 2 -116 6
-116 11 0 4 -25 7 -55 7 l-55 0 0 -50z"/>
<path d="M34550 31785 c0 -1534 2 -2786 5 -2783 3 3 12 41 21 84 8 43 22 111
30 149 46 211 88 448 119 663 8 57 17 106 19 110 2 4 7 41 10 82 4 41 11 95
16 120 5 25 14 95 20 155 5 61 14 157 20 215 26 277 32 356 45 635 8 165 15
419 15 565 0 264 -21 775 -40 985 -31 347 -42 446 -74 695 -29 224 -80 528
-121 730 -9 41 -22 107 -30 145 -30 153 -47 230 -51 234 -2 2 -4 -1250 -4
-2784z"/>
<path d="M29308 25470 c-8 -23 -455 -465 -607 -600 -40 -36 -78 -70 -85 -75
-6 -6 -40 -35 -76 -65 -36 -30 -67 -58 -70 -61 -32 -36 -468 -373 -595 -459
-36 -25 -71 -50 -78 -55 -7 -6 -39 -28 -72 -50 -33 -22 -64 -44 -70 -48 -10
-8 -111 -73 -230 -149 -104 -66 -342 -208 -349 -208 -4 0 -25 -12 -49 -27
-123 -78 -606 -318 -832 -413 -27 -12 -59 -25 -70 -30 -11 -5 -42 -18 -70 -30
-50 -21 -62 -26 -120 -50 -119 -48 -319 -120 -520 -187 -199 -66 -286 -92
-435 -133 -41 -11 -88 -25 -105 -30 -16 -5 -48 -12 -70 -16 -22 -4 -44 -9 -50
-13 -5 -3 -35 -11 -65 -18 -30 -7 -86 -19 -125 -28 -606 -140 -1307 -224
-1857 -225 l-178 0 0 -1545 0 -1545 3390 -3390 c1864 -1865 3392 -3390 3395
-3390 3 0 5 979 5 2175 l0 2175 -1505 1505 c-828 828 -1505 1509 -1505 1514 0
10 34 24 190 75 142 47 470 167 535 195 11 5 40 17 65 27 53 21 127 51 155 64
11 5 65 28 120 51 352 146 876 406 1193 591 45 26 85 48 87 48 10 0 403 240
568 347 l97 64 0 2009 c0 1106 -2 2010 -4 2010 -2 0 -6 -4 -8 -10z"/>
<path d="M34550 10309 l0 -1431 38 33 c20 18 57 51 81 73 25 23 74 68 110 101
301 276 642 611 920 905 249 264 277 294 284 307 5 7 -259 279 -707 727 -394
394 -718 716 -721 716 -3 0 -5 -644 -5 -1431z"/>
</g>
</svg>
